<svg width="120" height="120" viewBox="0 0 120 120" fill="none" xmlns="http://www.w3.org/2000/svg">
<path d="M83.6569 5.49003H76.7344L83.9335 13.3022V17.0213H69.1059V12.6666H76.3041L69.1059 4.8544V1.13159H83.6569V5.49003ZM66.1659 5.49003H59.2434L66.4425 13.3022V17.0213H51.614V12.6666H58.8131L51.614 4.8544V1.13159H66.1659V5.49003ZM48.8465 5.66815H41.3765V12.4847H48.8465V17.0213H36.0665V1.13159H48.8465V5.66815Z" fill="#131313"/>
<path d="M25.8872 109.412L18.2963 24.2747H101.703L94.1052 109.398L59.9484 118.868L25.8872 109.412Z" fill="#1572B6"/>
<path d="M60.001 111.63L87.6 103.978L94.0932 31.2366H60.001V111.63Z" fill="#33A9DC"/>
<path d="M60 62.0811H73.8169L74.7722 51.3889H60V40.947H86.1834L85.9331 43.7483L83.3672 72.522H60V62.0811Z" fill="white"/>
<path d="M60.0628 89.1995L60.0169 89.2126L48.3881 86.072L47.6438 77.7441H37.1635L38.6269 94.1392L60.015 100.076L60.0638 100.062V89.1995H60.0628Z" fill="#EBEBEB"/>
<path d="M72.9299 72.0808L71.6717 86.0645L60.0261 89.208V100.072L81.432 94.1392L81.5895 92.3748L83.4064 72.0808H72.9299Z" fill="white"/>
<path d="M60.0366 40.947V51.3879H34.815L34.605 49.0414L34.1297 43.7483L33.8794 40.947H60.0366ZM60.0001 62.082V72.5238H48.5185L48.3094 70.1773L47.8332 64.8832L47.5829 62.082H60.0001Z" fill="#EBEBEB"/>
</svg>
