<svg width="120" height="120" viewBox="0 0 120 120" fill="none" xmlns="http://www.w3.org/2000/svg">
<path d="M26.1132 109.082L18.5729 24.509H101.427L93.8794 109.069L59.9494 118.475L26.1132 109.082Z" fill="#E44D26"/>
<path d="M60 111.285L87.4163 103.684L93.8672 31.425H60V111.285Z" fill="#F16529"/>
<path d="M60 62.7919H46.2741L45.3272 52.1691H60V41.7966H33.991L34.2385 44.5801L36.7885 73.1635H60V62.7919ZM60 89.7291L59.9541 89.7413L48.4031 86.6213L47.6644 78.3497H37.2516L38.7047 94.6359L59.9522 100.535L60 100.521V89.7291Z" fill="#EBEBEB"/>
<path d="M26.2819 1.52539H31.5525V6.73414H36.375V1.52539H41.6465V17.296H36.375V12.0151H31.5534V17.296H26.2819V1.52539ZM48.5775 6.7557H43.9368V1.52539H58.4915V6.7557H53.849V17.296H48.5775V6.7557ZM60.8015 1.52539H66.2971L69.6787 7.06695L73.0565 1.52539H78.5549V17.296H73.304V9.47914L69.6787 15.0863H69.5868L65.9587 9.47914V17.296H60.8006V1.52539H60.8015ZM81.179 1.52539H86.4515V12.0835H93.8643V17.297H81.179V1.52539Z" fill="black"/>
<path d="M59.9644 62.7919V73.1635H72.7369L71.5331 86.6157L59.9644 89.7385V100.529L81.2287 94.636L81.3844 92.8829L83.8219 65.5763L84.075 62.7919H81.2794H59.9644ZM59.9644 41.7966V52.1691H85.0191L85.2262 49.8376L85.6997 44.5801L85.9481 41.7966H59.9644Z" fill="white"/>
</svg>
