<svg width="120" height="120" viewBox="0 0 120 120" fill="none" xmlns="http://www.w3.org/2000/svg">
<path d="M107.18 75.7023C106.908 75.7023 106.638 75.631 106.4 75.4923L103.915 74.0223C103.544 73.8151 103.725 73.741 103.848 73.6988C104.343 73.5263 104.443 73.486 104.971 73.1879C105.026 73.157 105.098 73.1682 105.156 73.202L107.063 74.3354C107.099 74.3544 107.138 74.3643 107.179 74.3643C107.219 74.3643 107.259 74.3544 107.294 74.3354L114.735 70.0407C114.77 70.02 114.799 69.9906 114.819 69.9552C114.839 69.9198 114.85 69.8798 114.849 69.8391V61.2516C114.849 61.2104 114.839 61.1698 114.819 61.1339C114.798 61.0979 114.769 61.0678 114.734 61.0463L107.296 56.7554C107.261 56.736 107.221 56.7259 107.181 56.7259C107.141 56.7259 107.101 56.736 107.066 56.7554L99.629 61.0473C99.5937 61.0686 99.5644 61.0985 99.5439 61.1343C99.5234 61.17 99.5124 61.2104 99.5118 61.2516V69.8391C99.5118 69.9216 99.5577 69.9995 99.629 70.0379L101.667 71.2163C102.773 71.7685 103.451 71.1179 103.451 70.4635V61.9838C103.451 61.8648 103.548 61.7701 103.667 61.7701H104.611C104.728 61.7701 104.826 61.8648 104.826 61.9838V70.4635C104.826 71.9391 104.022 72.7857 102.622 72.7857C102.192 72.7857 101.854 72.7857 100.909 72.3207L98.9577 71.1976C98.7204 71.0592 98.5235 70.8611 98.3866 70.6229C98.2498 70.3847 98.1777 70.1148 98.1777 69.8401V61.2526C98.1777 60.6948 98.4749 60.1745 98.9577 59.897L106.399 55.5966C106.638 55.4661 106.907 55.3977 107.18 55.3977C107.453 55.3977 107.722 55.4661 107.961 55.5966L115.402 59.897C115.884 60.1754 116.183 60.6957 116.183 61.2526V69.8401C116.183 70.1148 116.111 70.3846 115.974 70.6228C115.837 70.8609 115.64 71.0591 115.402 71.1976L107.961 75.4932C107.724 75.631 107.454 75.7032 107.18 75.7023ZM109.479 69.7857C106.221 69.7857 105.54 68.2904 105.54 67.037C105.54 66.9799 105.563 66.9253 105.603 66.8851C105.644 66.8449 105.699 66.8223 105.756 66.8223H106.717C106.769 66.8221 106.819 66.8403 106.858 66.8737C106.897 66.907 106.923 66.9533 106.931 67.0041C107.076 67.9838 107.51 68.4779 109.479 68.4779C111.046 68.4779 111.713 68.1235 111.713 67.291C111.713 66.811 111.524 66.4557 109.088 66.2166C107.052 66.0151 105.793 65.566 105.793 63.9357C105.793 62.4348 107.059 61.5385 109.179 61.5385C111.563 61.5385 112.743 62.3663 112.892 64.142C112.894 64.1718 112.89 64.2019 112.881 64.2303C112.871 64.2586 112.856 64.2847 112.836 64.307C112.815 64.3283 112.791 64.3453 112.764 64.3571C112.737 64.3688 112.708 64.3751 112.678 64.3754H111.712C111.663 64.3755 111.615 64.3589 111.577 64.3283C111.539 64.2978 111.513 64.2552 111.502 64.2076C111.27 63.1763 110.707 62.8473 109.178 62.8473C107.467 62.8473 107.269 63.4445 107.269 63.8898C107.269 64.4307 107.503 64.5882 109.814 64.8938C112.101 65.1966 113.187 65.6241 113.187 67.232C113.188 68.8566 111.836 69.7857 109.479 69.7857Z" fill="#83CD29"/>
<path d="M91.858 64.1531C92.1514 63.9816 92.3324 63.6685 92.3324 63.3281V61.1213C92.3324 60.7819 92.1524 60.4688 91.858 60.2972L84.0167 55.7447C83.8717 55.6604 83.7071 55.6158 83.5393 55.6155C83.3716 55.6152 83.2068 55.6591 83.0614 55.7428L75.1714 60.2981C75.0267 60.3819 74.9066 60.5022 74.823 60.647C74.7394 60.7918 74.6954 60.956 74.6952 61.1231V70.2319C74.6952 70.5741 74.8789 70.891 75.1771 71.0607L83.0174 75.5279C83.3061 75.6938 83.6605 75.6947 83.9521 75.5335L88.6939 72.8972C88.7678 72.8563 88.8294 72.7964 88.8724 72.7238C88.9155 72.6512 88.9385 72.5684 88.9391 72.484C88.9397 72.3996 88.9178 72.3165 88.8757 72.2434C88.8336 72.1702 88.7728 72.1095 88.6996 72.0675L80.7608 67.5113C80.688 67.4698 80.6274 67.4098 80.5853 67.3373C80.5431 67.2649 80.5209 67.1826 80.5208 67.0988V64.2431C80.5208 64.0725 80.6117 63.916 80.7589 63.8316L83.2311 62.4066C83.3033 62.3647 83.3853 62.3426 83.4688 62.3426C83.5523 62.3426 83.6342 62.3647 83.7064 62.4066L86.1786 63.8316C86.2511 63.8731 86.3114 63.933 86.3534 64.0053C86.3953 64.0775 86.4175 64.1596 86.4177 64.2431V66.4894C86.4172 66.5734 86.439 66.656 86.4808 66.7289C86.5226 66.8017 86.583 66.8622 86.6558 66.9041C86.7286 66.946 86.8112 66.9679 86.8951 66.9675C86.9791 66.9671 87.0615 66.9445 87.1339 66.9019L91.858 64.1531Z" fill="#404137"/>
<path d="M83.4226 63.7257C83.4506 63.7101 83.482 63.7019 83.514 63.7019C83.546 63.7019 83.5775 63.7101 83.6054 63.7257L85.1195 64.6004C85.1757 64.6332 85.2104 64.6941 85.2104 64.7588V66.5073C85.2104 66.5729 85.1757 66.6329 85.1195 66.6657L83.6054 67.5394C83.5777 67.5556 83.5461 67.5641 83.514 67.5641C83.4819 67.5641 83.4504 67.5556 83.4226 67.5394L81.9095 66.6657C81.8815 66.6498 81.8583 66.6267 81.8422 66.5989C81.826 66.571 81.8176 66.5394 81.8176 66.5073V64.7588C81.8176 64.6941 81.8523 64.6332 81.9095 64.6004L83.4226 63.7257Z" fill="#83CD29"/>
<path d="M62.8903 67.363C62.8903 67.4473 62.8453 67.5261 62.7712 67.5692L60.0619 69.1311C60.0258 69.1523 59.9847 69.1634 59.9428 69.1634C59.9009 69.1634 59.8599 69.1523 59.8237 69.1311L57.1144 67.5692C57.0782 67.5482 57.0482 67.5182 57.0273 67.482C57.0064 67.4458 56.9954 67.4047 56.9953 67.363V64.2336C56.9953 64.1492 57.0412 64.0695 57.1144 64.0264L59.8237 62.4627C59.8599 62.441 59.9012 62.4296 59.9433 62.4296C59.9854 62.4296 60.0267 62.441 60.0628 62.4627L62.7731 64.0264C62.809 64.0478 62.8388 64.0781 62.8595 64.1144C62.8802 64.1507 62.8911 64.1918 62.8912 64.2336V67.363H62.8903ZM63.6225 44.1917C63.5498 44.152 63.4681 44.1318 63.3854 44.1331C63.3026 44.1344 63.2216 44.1571 63.1502 44.199C63.0788 44.241 63.0195 44.3007 62.9781 44.3723C62.9366 44.444 62.9145 44.5252 62.9137 44.608V56.7158C62.9135 56.7742 62.8981 56.8315 62.869 56.8821C62.8399 56.9327 62.7981 56.9749 62.7478 57.0045C62.697 57.0336 62.6395 57.0488 62.5809 57.0488C62.5224 57.0488 62.4649 57.0336 62.4141 57.0045L60.4378 55.8655C60.2931 55.7821 60.129 55.7383 59.962 55.7383C59.795 55.7383 59.631 55.7821 59.4862 55.8655L51.5944 60.4198C51.4494 60.5036 51.329 60.6239 51.2452 60.7689C51.1614 60.9139 51.1173 61.0784 51.1172 61.2458V70.3573C51.1172 70.6977 51.2991 71.0117 51.5934 71.1833L59.4853 75.7405C59.7797 75.9111 60.1434 75.9111 60.4387 75.7405L68.3325 71.1833C68.4772 71.0993 68.5973 70.9788 68.6809 70.8339C68.7645 70.689 68.8086 70.5246 68.8087 70.3573V47.6445C68.8087 47.2995 68.6212 46.9808 68.3203 46.812L63.6225 44.1917Z" fill="#404137"/>
<path d="M35.8481 55.6941C35.9928 55.6103 36.1571 55.5662 36.3243 55.5662C36.4916 55.5662 36.6559 55.6103 36.8006 55.6941L44.6925 60.2475C44.9868 60.4181 45.1687 60.7331 45.1687 61.0734V70.1878C45.1687 70.5281 44.9868 70.8431 44.6925 71.0137L36.8015 75.5709C36.6565 75.6543 36.4921 75.6982 36.3248 75.6982C36.1575 75.6982 35.9931 75.6543 35.8481 75.5709L27.959 71.0137C27.8143 70.9298 27.6942 70.8093 27.6106 70.6644C27.5271 70.5194 27.483 70.3551 27.4828 70.1878V61.0725C27.4828 60.7331 27.6647 60.4181 27.959 60.2475L35.8481 55.6941Z" fill="#83CD29"/>
<path d="M21.4969 60.9975C21.4969 60.6543 21.3169 60.3393 21.0207 60.1696L13.1316 55.6293C12.9991 55.5525 12.8497 55.5097 12.6966 55.5046H12.6151C12.462 55.5098 12.3126 55.5526 12.1801 55.6293L4.29005 60.1696C4.14491 60.2537 4.02441 60.3744 3.94065 60.5197C3.8569 60.665 3.81283 60.8297 3.81287 60.9975L3.82974 73.2225C3.82974 73.3931 3.9188 73.5515 4.06787 73.634C4.13924 73.6773 4.22111 73.7002 4.30459 73.7002C4.38806 73.7002 4.46993 73.6773 4.5413 73.634L9.22881 70.949C9.52506 70.7728 9.706 70.4625 9.706 70.1221V64.4109C9.706 64.0696 9.886 63.7556 10.1813 63.585L12.1782 62.4356C12.3225 62.3508 12.487 62.3064 12.6544 62.3071C12.8176 62.3071 12.9844 62.3484 13.1298 62.4356L15.1248 63.585C15.4201 63.7556 15.6019 64.0696 15.6019 64.4109V70.1221C15.6019 70.4625 15.7848 70.7746 16.0791 70.949L20.7666 73.634C20.8389 73.6753 20.9208 73.697 21.004 73.6968C21.0873 73.6966 21.169 73.6745 21.2411 73.6329C21.3132 73.5913 21.3731 73.5315 21.4149 73.4594C21.4566 73.3874 21.4788 73.3057 21.4791 73.2225L21.4969 60.9975Z" fill="#404137"/>
</svg>
