<svg width="120" height="120" viewBox="0 0 120 120" fill="none" xmlns="http://www.w3.org/2000/svg">
<path d="M1.32001 1.32007H118.68V118.681H1.32001V1.32007Z" fill="#F0DB4F"/>
<path d="M109.075 90.6901C108.216 85.336 104.724 80.8388 94.3829 76.6454C90.7904 74.9945 86.7854 73.8123 85.5919 71.0898C85.1682 69.5054 85.1119 68.6129 85.3801 67.6538C86.1497 64.5413 89.8651 63.571 92.8097 64.4635C94.7063 65.0991 96.5016 66.5607 97.5844 68.8923C102.649 65.6129 102.639 65.6345 106.175 63.3807C104.88 61.3735 104.189 60.4473 103.342 59.5885C100.296 56.1863 96.1454 54.4341 89.5079 54.5682L86.0504 55.0154C82.7372 55.8526 79.5797 57.5916 77.7282 59.9232C72.1726 66.227 73.7569 77.2595 80.5172 81.7998C87.1772 86.7985 96.961 87.9357 98.2107 92.6101C99.4266 98.3326 94.0051 100.185 88.6163 99.527C84.6451 98.7011 82.4363 96.6826 80.0485 93.0123C75.6535 95.5557 75.6535 95.5557 71.1347 98.1545C72.2063 100.497 73.3322 101.558 75.1285 103.587C83.6297 112.21 104.904 111.787 108.719 98.7348C108.874 98.2867 109.901 95.2979 109.075 90.6901ZM65.1207 55.2591H54.1435L54.0985 83.6392C54.0985 89.6748 54.4107 95.2079 53.4291 96.9039C51.8232 100.239 47.6616 99.8261 45.765 99.1792C43.8347 98.2304 42.8532 96.8814 41.716 94.9745C41.4038 94.427 41.1694 94.0032 41.0907 93.9704L32.1656 99.4361C33.6497 102.482 35.836 105.126 38.6363 106.843C42.8194 109.354 48.4416 110.124 54.3216 108.774C58.1485 107.659 61.4504 105.35 63.1791 101.835C65.6785 97.2273 65.1422 91.6501 65.1197 85.4814C65.176 75.4173 65.1207 65.3551 65.1207 55.2591Z" fill="#323330"/>
</svg>
