<svg width="120" height="120" viewBox="0 0 120 120" fill="none" xmlns="http://www.w3.org/2000/svg">
<path d="M49.2947 63.5785C49.2947 63.5785 46.2159 65.3701 51.4894 65.9757C57.8775 66.7051 61.1428 66.6001 68.1815 65.2698C68.1815 65.2698 70.0368 66.4295 72.6206 67.4345C56.8369 74.1967 36.8982 67.0426 49.2947 63.5785ZM47.3644 54.752C47.3644 54.752 43.9106 57.3104 49.1878 57.856C56.0128 58.5601 61.4006 58.6182 70.7306 56.822C70.7306 56.822 72.0178 58.1307 74.0456 58.8441C54.9656 64.426 33.7135 59.2838 47.3644 54.752Z" fill="#0074BD"/>
<path d="M63.6234 39.779C67.515 44.2583 62.6034 48.2858 62.6034 48.2858C62.6034 48.2858 72.4781 43.1887 67.9434 36.8033C63.7068 30.8512 60.4603 27.8952 78.0412 17.699C78.0421 17.699 50.4431 24.5896 63.6234 39.779Z" fill="#EA2D2E"/>
<path d="M84.4987 70.1071C84.4987 70.1071 86.7787 71.9868 81.9881 73.4399C72.8793 76.199 44.0718 77.0315 36.0703 73.5496C33.1959 72.298 38.5893 70.5618 40.2853 70.1971C42.0543 69.8137 43.065 69.884 43.065 69.884C39.8662 67.6312 22.3884 74.308 34.1878 76.2234C66.3665 81.4387 92.8443 73.874 84.4987 70.1071ZM50.7768 45.6064C50.7768 45.6064 36.1247 49.0874 45.5887 50.353C49.5862 50.8874 57.5493 50.7646 64.9725 50.1421C71.0372 49.633 77.1234 48.5446 77.1234 48.5446C77.1234 48.5446 74.9868 49.4614 73.439 50.5171C58.5572 54.4311 29.8144 52.6077 38.0897 48.6064C45.0862 45.2211 50.7768 45.6064 50.7768 45.6064ZM77.0625 60.2971C92.189 52.4389 85.1943 44.8864 80.3128 45.9036C79.1193 46.153 78.5831 46.3686 78.5831 46.3686C78.5831 46.3686 79.0284 45.6711 79.875 45.3721C89.5331 41.9783 96.959 55.3855 76.7606 60.6955C76.7606 60.6955 76.9921 60.4855 77.0625 60.2971Z" fill="#0074BD"/>
<path d="M67.9444 1.23096C67.9444 1.23096 76.3209 9.61128 59.9981 22.4953C46.9087 32.8332 57.0131 38.7263 59.9925 45.4622C52.3519 38.5679 46.7475 32.4985 50.5069 26.851C56.0278 18.5616 71.3231 14.5407 67.9444 1.23096Z" fill="#EA2D2E"/>
<path d="M52.2647 81.5992C66.781 82.5274 89.0795 81.0827 89.6073 74.2136C89.6073 74.2136 88.5929 76.8171 77.6082 78.8833C65.2163 81.2158 49.9303 80.9449 40.8666 79.4486C40.8666 79.4486 42.7228 80.9861 52.2647 81.5992Z" fill="#0074BD"/>
<path d="M88.9369 93.9196H88.4944V93.6721H89.6851V93.9196H89.2444V95.1543H88.936L88.9369 93.9196ZM91.3135 93.9815H91.3079L90.8691 95.1543H90.6666L90.2307 93.9815H90.226V95.1543H89.9335V93.6721H90.3619L90.766 94.7212L91.171 93.6721H91.5966V95.1543H91.3135V93.9815ZM49.8853 107.847C48.5166 109.034 47.0691 109.701 45.7687 109.701C43.9181 109.701 42.9141 108.59 42.9141 106.809C42.9141 104.883 43.9884 103.472 48.2934 103.472H49.8844V107.847H49.8853ZM53.6644 112.111V98.9137C53.6644 95.5396 51.7397 93.314 47.1047 93.314C44.3991 93.314 42.0272 93.9833 40.0987 94.8346L40.6537 97.1718C42.1725 96.614 44.1366 96.0965 46.0641 96.0965C48.7359 96.0965 49.8844 97.1718 49.8844 99.3974V101.065H48.5494C42.0609 101.065 39.1331 103.582 39.1331 107.368C39.1331 110.63 41.0625 112.483 44.6953 112.483C47.0297 112.483 48.7744 111.519 50.4028 110.108L50.6991 112.112H53.6644V112.111ZM66.2757 112.111H61.5628L55.89 93.6524H60.0066L63.5278 104.995L64.3106 108.403C66.0882 103.474 67.3482 98.4693 67.9782 93.6533H71.9822C70.9107 99.7293 68.9794 106.401 66.2757 112.111ZM84.3582 107.847C82.9847 109.034 81.5363 109.701 80.2407 109.701C78.3882 109.701 77.385 108.59 77.385 106.809C77.385 104.883 78.4622 103.472 82.7626 103.472H84.3572V107.847H84.3582ZM88.1391 112.111V98.9137C88.1391 95.5396 86.2088 93.314 81.5776 93.314C78.8691 93.314 76.4982 93.9833 74.5697 94.8346L75.1257 97.1718C76.6444 96.614 78.6113 96.0965 80.5388 96.0965C83.2069 96.0965 84.3582 97.1718 84.3582 99.3974V101.065H83.0232C76.5329 101.065 73.606 103.582 73.606 107.368C73.606 110.63 75.5335 112.483 79.1654 112.483C81.5007 112.483 83.2426 111.519 84.8757 110.108L85.1738 112.112H88.1391V112.111ZM34.9894 115.248C33.914 116.822 32.1722 118.068 30.2672 118.77L28.4025 116.572C29.8528 115.827 31.095 114.626 31.6734 113.507C32.1722 112.51 32.3793 111.229 32.3793 108.162V87.0852H36.3956V107.872C36.3956 111.974 36.0694 113.632 34.9894 115.248Z" fill="#EA2D2E"/>
</svg>
