<svg width="120" height="120" viewBox="0 0 120 120" fill="none" xmlns="http://www.w3.org/2000/svg">
<path d="M108.187 28.7813L62.9062 2.71875C62.1562 2.25 61.1249 2.0625 59.9999 2.0625C58.8749 2.0625 57.8437 2.34375 57.0937 2.71875L12.0937 28.875C10.5 29.8125 9.375 32.1563 9.375 33.9375V86.1563C9.375 87.1876 9.5625 88.4064 10.3125 89.4376L110.437 31.3125C109.875 30.1875 109.031 29.3438 108.187 28.7813Z" fill="#659AD3"/>
<path d="M10.0312 89.3438C10.5 90.0938 11.1563 90.75 11.8125 91.125L57 117.281C57.75 117.75 58.7813 117.938 59.9063 117.938C61.0313 117.938 62.0626 117.656 62.8126 117.281L107.813 91.125C109.406 90.1875 110.531 87.8438 110.531 86.0625V33.8437C110.531 33 110.438 32.0625 109.969 31.2188L10.0312 89.3438Z" fill="#03599C"/>
<path d="M79.9687 71.3438C76.0312 78.2812 68.5312 82.9688 60 82.9688C47.3437 82.9688 37.0312 72.6562 37.0312 60C37.0312 47.3438 47.3437 37.0312 60 37.0312C68.5312 37.0312 76.0312 41.7188 79.9687 48.75L92.1562 41.7188C85.7812 30.5625 73.7812 22.9688 60 22.9688C39.5625 22.9688 22.9688 39.5625 22.9688 60C22.9688 80.4375 39.5625 97.0312 60 97.0312C73.6874 97.0312 85.6874 89.5312 92.0624 78.4687L79.9687 71.3438Z" fill="white"/>
</svg>
