<svg width="120" height="120" viewBox="0 0 120 120" fill="none" xmlns="http://www.w3.org/2000/svg">
<path fill-rule="evenodd" clip-rule="evenodd" d="M48.5943 21.5785C52.1156 21.5785 55.6368 21.6328 59.1534 21.541C60.0862 21.5166 61.7596 22.2881 61.6846 20.3494C61.6274 18.7716 60.164 19.3425 59.2771 19.3285C55.305 19.2656 51.3196 19.1147 47.3634 19.3631C44.5481 19.5385 43.7184 18.4697 44.0718 15.8878C44.1937 14.9972 44.0765 14.0747 44.0953 13.1672C44.219 7.12406 45.6796 5.06718 51.5409 3.57655C57.9984 1.93593 64.6068 1.9903 71.0465 3.40405C76.8356 4.67531 79.2402 9.17906 78.9477 13.3453C78.5915 18.4294 78.8671 23.5575 78.8624 28.6669C78.854 35.0916 75.5343 38.5013 69.0571 38.5904C63.7228 38.6635 58.3818 38.7216 53.0503 38.5735C46.6959 38.3954 42.0347 43.6735 42.0028 49.6548C42.0028 50.1085 42.0806 50.5773 41.9906 51.0151C41.5331 53.2116 43.3612 56.762 41.0325 57.4145C37.4887 58.4101 33.3393 58.4101 30.2137 55.2479C29.1544 54.1791 28.2619 52.9819 27.7912 51.5982C25.2797 44.2247 24.8831 36.7575 27.2475 29.2688C28.7212 24.5944 32.73 21.6872 37.6959 21.6038C41.3278 21.5428 44.9606 21.5916 48.5925 21.5916L48.5943 21.5785ZM55.065 11.1534C54.9131 9.36938 53.954 8.06719 51.975 8.01281C49.8103 7.95656 48.6918 9.26531 48.689 11.3953C48.6871 13.3697 49.7625 14.6344 51.7275 14.6916C53.8865 14.7544 54.9318 13.4166 55.065 11.1534Z" fill="#386F9F"/>
<path fill-rule="evenodd" clip-rule="evenodd" d="M75.7724 57.7238C71.7974 57.7238 67.8205 57.6891 63.8456 57.7519C62.9502 57.7632 61.4484 57.1969 61.4015 58.7279C61.349 60.4641 62.9606 60.0122 63.9843 60.0226C67.9593 60.0722 71.938 60.1144 75.9121 60.0038C77.954 59.9475 78.7874 60.3385 78.9402 62.746C79.6312 73.6444 74.9015 74.5866 66.178 76.5694C61.1737 77.7066 55.8084 77.1038 50.8734 74.8932C46.7925 73.0679 44.2884 70.4372 44.6043 65.5116C44.9175 60.6497 44.97 55.7251 44.5959 50.8679C44.1459 45.0057 47.7928 40.6941 54.8849 40.6923C59.6568 40.6913 64.4606 40.3276 69.1912 40.7626C75.9552 41.3832 81.2587 35.5201 81.4912 28.7026C81.5005 28.4766 81.4424 28.2338 81.5005 28.0238C82.0968 25.9285 79.9762 22.8141 82.813 21.7557C87.1002 20.1573 91.9349 21.8373 94.1249 25.0904C96.8858 29.1863 97.2589 34.006 97.7052 38.7123C98.188 43.7851 96.7649 48.5607 94.6339 53.1366C93.1864 56.2397 90.7527 57.7397 87.3618 57.7444C83.4993 57.7472 79.6377 57.7444 75.7743 57.7444C75.7724 57.7369 75.7724 57.7304 75.7724 57.7238ZM74.7374 67.8488C74.3127 65.9119 73.439 64.59 71.189 64.5347C68.849 64.4785 68.2452 66.2288 68.2574 67.7916C68.2705 69.4529 68.7337 71.4966 71.2668 71.3054C73.3724 71.1441 74.399 69.84 74.7374 67.8488Z" fill="#FFCF46"/>
<path fill-rule="evenodd" clip-rule="evenodd" d="M13.2459 107.671C13.2459 110.091 13.3556 112.358 13.1944 114.606C13.125 115.575 14.1938 117.399 12.1603 117.397C10.3678 117.397 9.90751 115.971 9.96469 114.246C10.0744 110.956 9.99657 107.659 9.99657 104.365V96.8671C9.99657 92.3483 11.2088 90.8183 15.5306 89.8827C19.5488 89.009 22.7063 90.3618 24.33 93.8793C25.9538 97.3977 26.0794 101.023 24.4547 104.602C22.8535 108.129 19.9041 109.446 16.1259 108.4C15.2653 108.166 14.3963 107.962 13.2459 107.671ZM13.2459 98.8133C13.2459 100.06 13.4147 101.331 13.2113 102.545C12.7406 105.349 14.5313 106.04 16.6425 106.538C18.7303 107.031 20.1619 106.144 20.9991 104.304C22.4063 101.22 22.6425 98.039 21.5738 94.7774C20.625 91.8786 18.4341 91.5393 15.8766 91.8993C13.3509 92.2583 13.0088 93.9758 13.2291 96.0993C13.3228 96.9946 13.2459 97.9087 13.2459 98.8133ZM40.4213 107.521C38.6916 107.971 37.1897 108.451 35.6522 108.74C32.2866 109.369 29.7947 107.521 28.9181 104.151C27.8306 99.9815 28.7513 95.8274 28.7794 91.6668C28.7916 89.7702 30.5466 90.5099 31.7606 89.4936C31.7606 93.9468 31.7775 97.7905 31.755 101.631C31.7428 103.561 32.2416 105.147 34.066 106.164C36.0797 107.287 37.7316 106.218 39.4847 105.497C40.741 104.98 40.5844 103.926 40.5863 102.922C40.5957 99.2924 40.5853 95.6661 40.5975 92.0361C40.5994 91.1408 40.5066 90.0468 41.8285 90.0908C43.0069 90.1293 43.5197 90.8296 43.5 92.114C43.4147 98.1205 43.5844 104.136 43.3407 110.134C43.156 114.669 39.9563 117.44 35.3531 117.643C34.6641 117.672 33.9422 117.736 33.6844 116.881C33.2916 115.565 34.3575 115.813 35.0578 115.589C40.1213 113.978 40.7832 113.016 40.4213 107.521ZM61.8188 91.9349C63.1585 91.3021 63.9282 90.7227 64.7747 90.5661C69.5251 89.6877 73.1654 90.0224 73.156 96.4208C73.1494 99.7162 73.1579 103.012 73.1494 106.307C73.1475 107.229 73.2066 108.127 71.8313 108.207C70.381 108.293 70.0622 107.464 70.0688 106.326C70.0857 103.151 70.1719 99.9758 70.1691 96.8015C70.1672 94.3358 69.6638 92.1533 66.5279 92.1608C63.7772 92.1655 61.8291 94.2186 61.815 97.0518C61.7992 100.119 61.8002 103.186 61.8179 106.252C61.8207 107.342 61.8441 108.297 60.2691 108.207C58.8507 108.123 59.025 107.166 59.025 106.286C59.0157 98.2237 59.055 90.1527 58.9866 82.0846C58.9744 80.6708 59.5322 79.7933 60.7866 79.7333C62.5566 79.6518 61.7457 81.1996 61.7719 81.9758C61.8872 85.1361 61.8188 88.304 61.8188 91.9349ZM76.8094 99.164C76.6304 92.8686 79.6163 89.5077 85.0219 89.7027C87.7351 89.8021 89.7704 91.0058 91.0838 93.3496C93.4041 97.4952 93.0901 101.643 90.5794 105.525C88.8544 108.191 86.2013 109.448 82.9669 108.762C79.7776 108.087 77.28 105.216 76.8282 101.869C76.7082 100.983 76.8094 100.065 76.8094 99.164ZM89.2969 99.3112C89.1544 98.2124 89.1797 96.6805 88.7222 95.3136C88.0969 93.4386 86.9569 91.9293 84.631 91.8261C82.2844 91.7249 81.1135 93.0965 80.3307 94.9949C79.1016 97.9752 79.1813 100.968 80.5126 103.895C81.3676 105.78 82.6876 107.16 84.9751 106.777C87.2279 106.401 88.5573 104.925 89.0176 102.734C89.2266 101.741 89.1929 100.701 89.2969 99.3121V99.3112ZM95.866 100.15C95.866 99.014 95.8444 97.8796 95.8698 96.749C95.9223 94.5693 95.2276 92.1543 98.1666 91.0405C101.532 89.7693 104.868 88.8168 108.256 90.7846C109.524 91.5215 109.99 92.8602 110.004 94.2815C110.038 98.248 109.986 102.216 110.039 106.183C110.058 107.567 109.694 108.259 108.139 108.221C106.434 108.181 106.794 107.018 106.805 106.09C106.845 102.921 107.065 99.7555 107.005 96.5915C106.927 92.6071 104.74 90.9824 101.016 91.9602C99.4707 92.3671 98.5051 93.1171 98.581 95.0296C98.7319 98.7627 98.6157 102.509 98.6298 106.249C98.6335 107.332 98.6494 108.292 97.0857 108.201C95.6532 108.119 95.8876 107.128 95.8763 106.268C95.8501 104.228 95.8688 102.187 95.866 100.15ZM55.021 91.3152C54.7866 91.5927 54.5897 92.0277 54.3835 92.0315C50.6672 92.083 51.6985 94.8571 51.6028 96.9149C51.5119 98.8321 51.6028 100.759 51.5757 102.681C51.5475 104.592 51.7135 106.368 54.0385 106.875C54.705 107.019 55.0088 107.404 54.87 108.069C54.7172 108.804 54.1313 108.775 53.551 108.768C50.8791 108.721 48.8982 106.832 48.8194 104.066C48.7388 101.241 48.8485 98.4083 48.7819 95.5855C48.7472 94.2449 49.4438 92.534 47.2819 92.0024C47.0447 91.9452 46.9603 91.273 46.8057 90.8896C49.6894 89.9849 48.4932 87.4977 48.8888 85.6105C49.0763 84.7171 49.9247 84.4724 50.7263 84.3965C51.5372 84.3196 51.5438 84.9758 51.57 85.5243C51.6769 87.6993 50.551 90.6102 54.555 90.4518C54.6891 90.4471 54.8457 90.9786 55.021 91.3143V91.3152Z" fill="#386F9F"/>
</svg>
